<?xml version="1.0" encoding="UTF-8" standalone="no"?>
<!-- Created with Inkscape (http://www.inkscape.org/) -->

<svg
   xmlns:dc="http://purl.org/dc/elements/1.1/"
   xmlns:cc="http://creativecommons.org/ns#"
   xmlns:rdf="http://www.w3.org/1999/02/22-rdf-syntax-ns#"
   xmlns:svg="http://www.w3.org/2000/svg"
   xmlns="http://www.w3.org/2000/svg"
   xmlns:xlink="http://www.w3.org/1999/xlink"
   xmlns:sodipodi="http://sodipodi.sourceforge.net/DTD/sodipodi-0.dtd"
   xmlns:inkscape="http://www.inkscape.org/namespaces/inkscape"
   width="1080"
   height="1800"
   id="svg2"
   version="1.1"
   inkscape:version="0.48.5 r10040"
   sodipodi:docname="optogrid.svg">
  <defs
     id="defs4">
    <inkscape:path-effect
       effect="spiro"
       id="path-effect3804"
       is_visible="true" />
    <inkscape:path-effect
       effect="spiro"
       id="path-effect3746"
       is_visible="true" />
    <inkscape:path-effect
       effect="spiro"
       id="path-effect3742"
       is_visible="true" />
    <inkscape:path-effect
       effect="spiro"
       id="path-effect3746-1"
       is_visible="true" />
    <inkscape:path-effect
       effect="spiro"
       id="path-effect3742-4"
       is_visible="true" />
    <inkscape:path-effect
       effect="spiro"
       id="path-effect3742-4-9"
       is_visible="true" />
    <inkscape:path-effect
       effect="spiro"
       id="path-effect3746-1-4"
       is_visible="true" />
    <inkscape:path-effect
       effect="spiro"
       id="path-effect3746-8"
       is_visible="true" />
    <inkscape:path-effect
       effect="spiro"
       id="path-effect3742-8"
       is_visible="true" />
    <inkscape:path-effect
       effect="spiro"
       id="path-effect3742-4-1"
       is_visible="true" />
    <inkscape:path-effect
       effect="spiro"
       id="path-effect3746-1-7"
       is_visible="true" />
    <inkscape:path-effect
       effect="spiro"
       id="path-effect3746-11"
       is_visible="true" />
    <inkscape:path-effect
       effect="spiro"
       id="path-effect3742-5"
       is_visible="true" />
    <inkscape:path-effect
       effect="spiro"
       id="path-effect3742-4-2"
       is_visible="true" />
    <inkscape:path-effect
       effect="spiro"
       id="path-effect3746-1-3"
       is_visible="true" />
    <inkscape:path-effect
       effect="spiro"
       id="path-effect3746-2"
       is_visible="true" />
    <inkscape:path-effect
       effect="spiro"
       id="path-effect3742-2"
       is_visible="true" />
    <inkscape:path-effect
       effect="spiro"
       id="path-effect3742-4-18"
       is_visible="true" />
    <inkscape:path-effect
       effect="spiro"
       id="path-effect3746-1-9"
       is_visible="true" />
    <inkscape:path-effect
       effect="spiro"
       id="path-effect3746-27"
       is_visible="true" />
    <inkscape:path-effect
       effect="spiro"
       id="path-effect3742-9"
       is_visible="true" />
    <inkscape:path-effect
       effect="spiro"
       id="path-effect3742-4-3"
       is_visible="true" />
    <inkscape:path-effect
       effect="spiro"
       id="path-effect3746-1-41"
       is_visible="true" />
    <inkscape:path-effect
       effect="spiro"
       id="path-effect3746-13"
       is_visible="true" />
    <inkscape:path-effect
       effect="spiro"
       id="path-effect3742-87"
       is_visible="true" />
    <inkscape:path-effect
       effect="spiro"
       id="path-effect3742-87-9"
       is_visible="true" />
    <inkscape:path-effect
       effect="spiro"
       id="path-effect3746-19"
       is_visible="true" />
    <inkscape:path-effect
       effect="spiro"
       id="path-effect3746-19-6"
       is_visible="true" />
    <inkscape:path-effect
       effect="spiro"
       id="path-effect3746-19-6-1"
       is_visible="true" />
    <inkscape:path-effect
       effect="spiro"
       id="path-effect3746-19-7"
       is_visible="true" />
    <inkscape:path-effect
       effect="spiro"
       id="path-effect3742-87-9-4"
       is_visible="true" />
    <inkscape:path-effect
       effect="spiro"
       id="path-effect3742-4-3-0"
       is_visible="true" />
    <inkscape:path-effect
       effect="spiro"
       id="path-effect3746-1-41-9"
       is_visible="true" />
    <inkscape:path-effect
       effect="spiro"
       id="path-effect3746-13-4"
       is_visible="true" />
    <inkscape:path-effect
       effect="spiro"
       id="path-effect3742-87-8"
       is_visible="true" />
    <inkscape:path-effect
       effect="spiro"
       id="path-effect3742-4-18-8"
       is_visible="true" />
    <inkscape:path-effect
       effect="spiro"
       id="path-effect3746-1-9-2"
       is_visible="true" />
    <inkscape:path-effect
       effect="spiro"
       id="path-effect3746-27-4"
       is_visible="true" />
    <inkscape:path-effect
       effect="spiro"
       id="path-effect3742-9-5"
       is_visible="true" />
    <inkscape:path-effect
       effect="spiro"
       id="path-effect3742-4-2-5"
       is_visible="true" />
    <inkscape:path-effect
       effect="spiro"
       id="path-effect3746-1-3-1"
       is_visible="true" />
    <inkscape:path-effect
       effect="spiro"
       id="path-effect3746-2-7"
       is_visible="true" />
    <inkscape:path-effect
       effect="spiro"
       id="path-effect3742-2-1"
       is_visible="true" />
    <inkscape:path-effect
       effect="spiro"
       id="path-effect3742-4-1-1"
       is_visible="true" />
    <inkscape:path-effect
       effect="spiro"
       id="path-effect3746-1-7-5"
       is_visible="true" />
    <inkscape:path-effect
       effect="spiro"
       id="path-effect3746-11-2"
       is_visible="true" />
    <inkscape:path-effect
       effect="spiro"
       id="path-effect3742-5-7"
       is_visible="true" />
    <inkscape:path-effect
       effect="spiro"
       id="path-effect3742-4-9-6"
       is_visible="true" />
    <inkscape:path-effect
       effect="spiro"
       id="path-effect3746-1-4-1"
       is_visible="true" />
    <inkscape:path-effect
       effect="spiro"
       id="path-effect3746-8-4"
       is_visible="true" />
    <inkscape:path-effect
       effect="spiro"
       id="path-effect3742-8-2"
       is_visible="true" />
    <inkscape:path-effect
       effect="spiro"
       id="path-effect3804-3"
       is_visible="true" />
    <inkscape:path-effect
       effect="spiro"
       id="path-effect3742-4-22"
       is_visible="true" />
    <inkscape:path-effect
       effect="spiro"
       id="path-effect3746-1-1"
       is_visible="true" />
    <inkscape:path-effect
       effect="spiro"
       id="path-effect3746-6"
       is_visible="true" />
    <inkscape:path-effect
       effect="spiro"
       id="path-effect3742-85"
       is_visible="true" />
  </defs>
  <sodipodi:namedview
     id="base"
     pagecolor="#ffffff"
     bordercolor="#666666"
     borderopacity="1.0"
     inkscape:pageopacity="0.0"
     inkscape:pageshadow="2"
     inkscape:zoom="0.48388889"
     inkscape:cx="493.55436"
     inkscape:cy="1683.7082"
     inkscape:document-units="in"
     inkscape:current-layer="layer1"
     showgrid="false"
     units="in"
     inkscape:window-width="1440"
     inkscape:window-height="838"
     inkscape:window-x="-8"
     inkscape:window-y="-8"
     inkscape:window-maximized="1"
     showborder="true" />
  <metadata
     id="metadata7">
    <rdf:RDF>
      <cc:Work
         rdf:about="">
        <dc:format>image/svg+xml</dc:format>
        <dc:type
           rdf:resource="http://purl.org/dc/dcmitype/StillImage" />
        <dc:title></dc:title>
      </cc:Work>
    </rdf:RDF>
  </metadata>
  <g
     inkscape:label="Layer 1"
     inkscape:groupmode="layer"
     id="layer1"
     transform="translate(0,747.6405029296729)">
    <g
       id="g4006"
       transform="translate(86.796785,-1167.6234)"
       inkscape:tile-cx="558.7968"
       inkscape:tile-cy="163.1578"
       inkscape:tile-w="944"
       inkscape:tile-h="190.25"
       inkscape:tile-x0="86.796784"
       inkscape:tile-y0="68.032803">
      <path
         id="rect4195"
         d="m 0,488.0157 0,190.25 944,0 0,-190.25 -125.34375,0 0,35.2813 0,6.25 0,4 -10.25,0 0,-4 0,-6.25 0,-35.2813 -126.375,0 0,35.2813 0,6.25 0,4 -10.25,0 0,-4 0,-6.25 0,-35.2813 -126.34375,0 0,35.2813 0,6.25 0,4 -10.25,0 0,-4 0,-6.25 0,-35.2813 -126.375,0 0,35.2813 0,6.25 0,4 -10.25,0 0,-4 0,-6.25 0,-35.2813 -126.34375,0 0,35.2813 0,6.25 0,4 -10.25,0 0,-4 0,-6.25 0,-35.2813 -126.375,0 0,35.2813 0,6.25 0,4 -10.25,0 0,-4 0,-6.25 0,-35.2813 -125.34375,0 z"
         style="fill:none;stroke:#00ff00;stroke-width:1;stroke-linecap:butt;stroke-linejoin:miter;stroke-miterlimit:4;stroke-opacity:1;stroke-dasharray:none;stroke-dashoffset:0"
         inkscape:connector-curvature="0" />
      <g
         transform="translate(0,5.6125144)"
         id="g5237">
        <path
           inkscape:connector-curvature="0"
           style="fill:none;stroke:#00ff00;stroke-width:1;stroke-linecap:butt;stroke-linejoin:miter;stroke-miterlimit:4;stroke-opacity:1;stroke-dasharray:none;stroke-dashoffset:0"
           d="m 11.25,1319.375 0,11.5938 112.65625,0 0,45 10.25,0 0,-45 126.34375,0 0,45 10.25,0 0,-45 126.375,0 0,45 10.25,0 0,-45 126.34375,0 0,45 10.25,0 0,-45 126.34375,0 0,45 10.25,0 0,-45 126.375,0 0,45 10.25,0 0,-45 115.5625,0 0,-11.5938 -921.5,0 z"
           transform="translate(0,-747.6405)"
           id="rect4197" />
        <path
           style="fill:none;stroke:#00ff00;stroke-width:0.99999988px;stroke-linecap:butt;stroke-linejoin:miter;stroke-opacity:1"
           d="M -5.3479616e-7,577.53082 11.238092,577.53082"
           id="path4967"
           inkscape:connector-curvature="0" />
        <path
           inkscape:connector-curvature="0"
           id="path4972"
           d="m 932.76191,577.53082 11.23809,0"
           style="fill:none;stroke:#00ff00;stroke-width:0.99999988px;stroke-linecap:butt;stroke-linejoin:miter;stroke-opacity:1" />
      </g>
      <rect
         y="668.20972"
         x="0.65181339"
         height="0.21637326"
         width="942.69641"
         id="rect3119"
         style="fill:#0000ff;fill-rule:evenodd;stroke:#000000;stroke-width:2.30362678px;stroke-linecap:butt;stroke-linejoin:miter;stroke-opacity:1" />
      <path
         transform="matrix(0.98558282,0,0,0.82131902,47.666955,-472.47402)"
         d="m 65.027845,1391.932 c 0,0.6053 -0.408904,1.096 -0.913313,1.096 -0.504408,0 -0.913312,-0.4907 -0.913312,-1.096 0,-0.6053 0.408904,-1.096 0.913312,-1.096 0.504409,0 0.913313,0.4907 0.913313,1.096 z"
         sodipodi:ry="1.0959749"
         sodipodi:rx="0.91331244"
         sodipodi:cy="1391.932"
         sodipodi:cx="64.114532"
         id="path3889"
         style="fill:#ff0000;fill-rule:evenodd;stroke:#ff0000;stroke-width:1px;stroke-linecap:butt;stroke-linejoin:miter;stroke-opacity:1"
         sodipodi:type="arc" />
      <path
         transform="matrix(0.98558282,0,0,0.82131902,184.22447,-472.47402)"
         d="m 65.027845,1391.932 c 0,0.6053 -0.408904,1.096 -0.913313,1.096 -0.504408,0 -0.913312,-0.4907 -0.913312,-1.096 0,-0.6053 0.408904,-1.096 0.913312,-1.096 0.504409,0 0.913313,0.4907 0.913313,1.096 z"
         sodipodi:ry="1.0959749"
         sodipodi:rx="0.91331244"
         sodipodi:cy="1391.932"
         sodipodi:cx="64.114532"
         id="path3889-5"
         style="fill:#ff0000;fill-rule:evenodd;stroke:#ff0000;stroke-width:1px;stroke-linecap:butt;stroke-linejoin:miter;stroke-opacity:1"
         sodipodi:type="arc" />
      <path
         transform="matrix(0.98558282,0,0,0.82131902,320.78197,-472.47402)"
         d="m 65.027845,1391.932 c 0,0.6053 -0.408904,1.096 -0.913313,1.096 -0.504408,0 -0.913312,-0.4907 -0.913312,-1.096 0,-0.6053 0.408904,-1.096 0.913312,-1.096 0.504409,0 0.913313,0.4907 0.913313,1.096 z"
         sodipodi:ry="1.0959749"
         sodipodi:rx="0.91331244"
         sodipodi:cy="1391.932"
         sodipodi:cx="64.114532"
         id="path3889-0"
         style="fill:#ff0000;fill-rule:evenodd;stroke:#ff0000;stroke-width:1px;stroke-linecap:butt;stroke-linejoin:miter;stroke-opacity:1"
         sodipodi:type="arc" />
      <path
         transform="matrix(0.98558282,0,0,0.82131902,457.33948,-472.47402)"
         d="m 65.027845,1391.932 c 0,0.6053 -0.408904,1.096 -0.913313,1.096 -0.504408,0 -0.913312,-0.4907 -0.913312,-1.096 0,-0.6053 0.408904,-1.096 0.913312,-1.096 0.504409,0 0.913313,0.4907 0.913313,1.096 z"
         sodipodi:ry="1.0959749"
         sodipodi:rx="0.91331244"
         sodipodi:cy="1391.932"
         sodipodi:cx="64.114532"
         id="path3889-2"
         style="fill:#ff0000;fill-rule:evenodd;stroke:#ff0000;stroke-width:1px;stroke-linecap:butt;stroke-linejoin:miter;stroke-opacity:1"
         sodipodi:type="arc" />
      <path
         transform="matrix(0.98558282,0,0,0.82131902,593.89701,-472.47402)"
         d="m 65.027845,1391.932 c 0,0.6053 -0.408904,1.096 -0.913313,1.096 -0.504408,0 -0.913312,-0.4907 -0.913312,-1.096 0,-0.6053 0.408904,-1.096 0.913312,-1.096 0.504409,0 0.913313,0.4907 0.913313,1.096 z"
         sodipodi:ry="1.0959749"
         sodipodi:rx="0.91331244"
         sodipodi:cy="1391.932"
         sodipodi:cx="64.114532"
         id="path3889-8"
         style="fill:#ff0000;fill-rule:evenodd;stroke:#ff0000;stroke-width:1px;stroke-linecap:butt;stroke-linejoin:miter;stroke-opacity:1"
         sodipodi:type="arc" />
      <path
         transform="matrix(0.98558282,0,0,0.82131902,730.4545,-472.47402)"
         d="m 65.027845,1391.932 c 0,0.6053 -0.408904,1.096 -0.913313,1.096 -0.504408,0 -0.913312,-0.4907 -0.913312,-1.096 0,-0.6053 0.408904,-1.096 0.913312,-1.096 0.504409,0 0.913313,0.4907 0.913313,1.096 z"
         sodipodi:ry="1.0959749"
         sodipodi:rx="0.91331244"
         sodipodi:cy="1391.932"
         sodipodi:cx="64.114532"
         id="path3889-6"
         style="fill:#ff0000;fill-rule:evenodd;stroke:#ff0000;stroke-width:1px;stroke-linecap:butt;stroke-linejoin:miter;stroke-opacity:1"
         sodipodi:type="arc" />
      <path
         transform="matrix(0.98558282,0,0,0.82131902,867.01203,-472.47402)"
         d="m 65.027845,1391.932 c 0,0.6053 -0.408904,1.096 -0.913313,1.096 -0.504408,0 -0.913312,-0.4907 -0.913312,-1.096 0,-0.6053 0.408904,-1.096 0.913312,-1.096 0.504409,0 0.913313,0.4907 0.913313,1.096 z"
         sodipodi:ry="1.0959749"
         sodipodi:rx="0.91331244"
         sodipodi:cy="1391.932"
         sodipodi:cx="64.114532"
         id="path3889-02"
         style="fill:#ff0000;fill-rule:evenodd;stroke:#ff0000;stroke-width:1px;stroke-linecap:butt;stroke-linejoin:miter;stroke-opacity:1"
         sodipodi:type="arc" />
    </g>
    <use
       x="0"
       y="0"
       inkscape:tiled-clone-of="#g4006"
       xlink:href="#g4006"
       id="use4298" />
    <use
       x="0"
       y="0"
       inkscape:tiled-clone-of="#g4006"
       xlink:href="#g4006"
       transform="translate(0,190.25)"
       id="use4300" />
    <use
       x="0"
       y="0"
       inkscape:tiled-clone-of="#g4006"
       xlink:href="#g4006"
       transform="translate(0,380.5)"
       id="use4302" />
  </g>
</svg>
