<?xml version="1.0" encoding="UTF-8" standalone="no"?>
<!-- Created with Inkscape (http://www.inkscape.org/) -->

<svg
   xmlns:dc="http://purl.org/dc/elements/1.1/"
   xmlns:cc="http://creativecommons.org/ns#"
   xmlns:rdf="http://www.w3.org/1999/02/22-rdf-syntax-ns#"
   xmlns:svg="http://www.w3.org/2000/svg"
   xmlns="http://www.w3.org/2000/svg"
   xmlns:sodipodi="http://sodipodi.sourceforge.net/DTD/sodipodi-0.dtd"
   xmlns:inkscape="http://www.inkscape.org/namespaces/inkscape"
   width="990"
   height="765"
   id="svg2"
   version="1.1"
   inkscape:version="0.48.5 r10040"
   sodipodi:docname="New document 1">
  <defs
     id="defs4" />
  <sodipodi:namedview
     id="base"
     pagecolor="#ffffff"
     bordercolor="#666666"
     borderopacity="1.0"
     inkscape:pageopacity="0.0"
     inkscape:pageshadow="2"
     inkscape:zoom="1"
     inkscape:cx="439.14107"
     inkscape:cy="425.61998"
     inkscape:document-units="px"
     inkscape:current-layer="layer1"
     showgrid="false"
     inkscape:window-width="1854"
     inkscape:window-height="1058"
     inkscape:window-x="58"
     inkscape:window-y="-8"
     inkscape:window-maximized="1" />
  <metadata
     id="metadata7">
    <rdf:RDF>
      <cc:Work
         rdf:about="">
        <dc:format>image/svg+xml</dc:format>
        <dc:type
           rdf:resource="http://purl.org/dc/dcmitype/StillImage" />
        <dc:title></dc:title>
      </cc:Work>
    </rdf:RDF>
  </metadata>
  <g
     inkscape:label="Layer 1"
     inkscape:groupmode="layer"
     id="layer1"
     transform="translate(0,-287.36218)">
    <path
       style="fill:none;stroke:#000000;stroke-width:0.27430922px;stroke-linecap:butt;stroke-linejoin:miter;stroke-opacity:1"
       d="m 45.137155,512.49934 0.62568,494.72566"
       id="path2999"
       inkscape:connector-curvature="0" />
    <path
       style="fill:none;stroke:#000000;stroke-width:0.45873532px;stroke-linecap:butt;stroke-linejoin:miter;stroke-opacity:1"
       d="m 45.229367,1007.1328 89.541263,-0.2206 0,0 0,0 0,-0.2206"
       id="path3001"
       inkscape:connector-curvature="0" />
    <path
       style="fill:none;stroke:#000000;stroke-width:0.45873532px;stroke-linecap:butt;stroke-linejoin:miter;stroke-opacity:1"
       d="m 225.22937,1007.1328 89.54126,-0.2206 0,0 0,0 0,-0.2206"
       id="path3001-1"
       inkscape:connector-curvature="0" />
    <path
       style="fill:none;stroke:#000000;stroke-width:0.45873532px;stroke-linecap:butt;stroke-linejoin:miter;stroke-opacity:1"
       d="m 45.229368,512.13281 89.541262,-0.2206 0,0 0,0 0,-0.2206"
       id="path3001-7"
       inkscape:connector-curvature="0" />
    <path
       style="fill:none;stroke:#000000;stroke-width:0.45873532px;stroke-linecap:butt;stroke-linejoin:miter;stroke-opacity:1"
       d="m 225.22937,512.13281 89.54126,-0.2206 0,0 0,0 0,-0.2206"
       id="path3001-7-4"
       inkscape:connector-curvature="0" />
    <path
       style="fill:none;stroke:#000000;stroke-width:0.27430922px;stroke-linecap:butt;stroke-linejoin:miter;stroke-opacity:1"
       d="m 315.13715,512.49937 0.62568,494.72563"
       id="path2999-0"
       inkscape:connector-curvature="0" />
    <path
       style="fill:none;stroke:#000000;stroke-width:0.55166745px;stroke-linecap:butt;stroke-linejoin:miter;stroke-opacity:1"
       d="m 135.27584,501.38801 0.34832,10.25257 0,0.44576 -0.34832,0"
       id="path3064"
       inkscape:connector-curvature="0" />
    <path
       style="fill:none;stroke:#000000;stroke-width:0.55166745px;stroke-linecap:butt;stroke-linejoin:miter;stroke-opacity:1"
       d="m 225.27583,501.38802 0.34832,10.25257 0,0.44576 -0.34832,0"
       id="path3064-9"
       inkscape:connector-curvature="0" />
    <path
       style="fill:none;stroke:#000000;stroke-width:0.55166745px;stroke-linecap:butt;stroke-linejoin:miter;stroke-opacity:1"
       d="m 135.27583,996.38802 0.34832,10.25258 0,0.4457 -0.34832,0"
       id="path3064-4"
       inkscape:connector-curvature="0" />
    <path
       style="fill:none;stroke:#000000;stroke-width:0.55166745px;stroke-linecap:butt;stroke-linejoin:miter;stroke-opacity:1"
       d="m 225.27583,996.38802 0.34832,10.25258 0,0.4457 -0.34832,0"
       id="path3064-8"
       inkscape:connector-curvature="0" />
    <path
       style="fill:none;stroke:#000000;stroke-width:0.45873532px;stroke-linecap:butt;stroke-linejoin:miter;stroke-opacity:1"
       d="m 135.22937,500.88281 89.54126,-0.2206 0,0 0,0 0,-0.2206"
       id="path3001-7-8"
       inkscape:connector-curvature="0" />
    <path
       style="fill:none;stroke:#000000;stroke-width:0.45873532px;stroke-linecap:butt;stroke-linejoin:miter;stroke-opacity:1"
       d="m 135.22937,995.88281 89.54127,-0.2206 0,0 0,0 0,-0.2206"
       id="path3001-7-2"
       inkscape:connector-curvature="0" />
    <path
       style="fill:none;stroke:#000000;stroke-width:0.27430922px;stroke-linecap:butt;stroke-linejoin:miter;stroke-opacity:1"
       d="m 360.13716,512.4994 0.62568,494.7256"
       id="path2999-4"
       inkscape:connector-curvature="0" />
    <path
       style="fill:none;stroke:#000000;stroke-width:0.45873532px;stroke-linecap:butt;stroke-linejoin:miter;stroke-opacity:1"
       d="m 360.22937,1007.1328 89.54126,-0.2206 0,0 0,0 0,-0.2206"
       id="path3001-5"
       inkscape:connector-curvature="0" />
    <path
       style="fill:none;stroke:#000000;stroke-width:0.45873532px;stroke-linecap:butt;stroke-linejoin:miter;stroke-opacity:1"
       d="m 540.22937,1007.1328 89.54126,-0.2206 0,0 0,0 0,-0.2206"
       id="path3001-1-5"
       inkscape:connector-curvature="0" />
    <path
       style="fill:none;stroke:#000000;stroke-width:0.45873532px;stroke-linecap:butt;stroke-linejoin:miter;stroke-opacity:1"
       d="m 360.22937,512.13287 89.54126,-0.2206 0,0 0,0 0,-0.2206"
       id="path3001-7-1"
       inkscape:connector-curvature="0" />
    <path
       style="fill:none;stroke:#000000;stroke-width:0.45873532px;stroke-linecap:butt;stroke-linejoin:miter;stroke-opacity:1"
       d="m 540.22937,512.13287 89.54126,-0.2206 0,0 0,0 0,-0.2206"
       id="path3001-7-4-7"
       inkscape:connector-curvature="0" />
    <path
       style="fill:none;stroke:#000000;stroke-width:0.27430922px;stroke-linecap:butt;stroke-linejoin:miter;stroke-opacity:1"
       d="m 630.13715,512.49943 0.62568,494.72557"
       id="path2999-0-1"
       inkscape:connector-curvature="0" />
    <path
       style="fill:none;stroke:#000000;stroke-width:0.55166745px;stroke-linecap:butt;stroke-linejoin:miter;stroke-opacity:1"
       d="m 450.27584,501.38807 0.34832,10.25257 0,0.44576 -0.34832,0"
       id="path3064-1"
       inkscape:connector-curvature="0" />
    <path
       style="fill:none;stroke:#000000;stroke-width:0.55166745px;stroke-linecap:butt;stroke-linejoin:miter;stroke-opacity:1"
       d="m 540.27583,501.38808 0.34832,10.25257 0,0.44576 -0.34832,0"
       id="path3064-9-5"
       inkscape:connector-curvature="0" />
    <path
       style="fill:none;stroke:#000000;stroke-width:0.55166745px;stroke-linecap:butt;stroke-linejoin:miter;stroke-opacity:1"
       d="m 450.27583,996.38811 0.34832,10.25249 0,0.4457 -0.34832,0"
       id="path3064-4-2"
       inkscape:connector-curvature="0" />
    <path
       style="fill:none;stroke:#000000;stroke-width:0.55166745px;stroke-linecap:butt;stroke-linejoin:miter;stroke-opacity:1"
       d="m 540.27583,996.38811 0.34832,10.25249 0,0.4457 -0.34832,0"
       id="path3064-8-7"
       inkscape:connector-curvature="0" />
    <path
       style="fill:none;stroke:#000000;stroke-width:0.45873532px;stroke-linecap:butt;stroke-linejoin:miter;stroke-opacity:1"
       d="m 450.22937,500.88287 89.54126,-0.2206 0,0 0,0 0,-0.2206"
       id="path3001-7-8-6"
       inkscape:connector-curvature="0" />
    <path
       style="fill:none;stroke:#000000;stroke-width:0.45873532px;stroke-linecap:butt;stroke-linejoin:miter;stroke-opacity:1"
       d="m 450.22937,995.88291 89.54127,-0.2206 0,0 0,0 0,-0.2206"
       id="path3001-7-2-1"
       inkscape:connector-curvature="0" />
  </g>
</svg>
