<?xml version="1.0" encoding="UTF-8" standalone="no"?>
<svg
   xmlns:dc="http://purl.org/dc/elements/1.1/"
   xmlns:cc="http://creativecommons.org/ns#"
   xmlns:rdf="http://www.w3.org/1999/02/22-rdf-syntax-ns#"
   xmlns:svg="http://www.w3.org/2000/svg"
   xmlns="http://www.w3.org/2000/svg"
   xmlns:sodipodi="http://sodipodi.sourceforge.net/DTD/sodipodi-0.dtd"
   xmlns:inkscape="http://www.inkscape.org/namespaces/inkscape"
   version="1.1"
   width="1620"
   height="990"
   viewBox="0 0 1620 990"
   id="svg2"
   inkscape:version="0.48.5 r10040"
   sodipodi:docname="Outer Case.svg">
  <metadata
     id="metadata32">
    <rdf:RDF>
      <cc:Work
         rdf:about="">
        <dc:format>image/svg+xml</dc:format>
        <dc:type
           rdf:resource="http://purl.org/dc/dcmitype/StillImage" />
      </cc:Work>
    </rdf:RDF>
  </metadata>
  <defs
     id="defs30" />
  <sodipodi:namedview
     pagecolor="#ffffff"
     bordercolor="#666666"
     borderopacity="1"
     objecttolerance="10"
     gridtolerance="10"
     guidetolerance="10"
     inkscape:pageopacity="0"
     inkscape:pageshadow="2"
     inkscape:window-width="1440"
     inkscape:window-height="838"
     id="namedview28"
     showgrid="false"
     inkscape:zoom="0.19506173"
     inkscape:cx="1991.3882"
     inkscape:cy="734.07343"
     inkscape:window-x="-8"
     inkscape:window-y="-8"
     inkscape:window-maximized="1"
     inkscape:current-layer="svg2"
     units="in"
     borderlayer="true"
     inkscape:document-units="in" />
  <!-- Front-->
  <!-- Back-->
  <!-- Left-->
  <!-- Right-->
  <!-- Top-->
  <!-- Bottom-->
  <g
     id="g3855"
     transform="translate(1960.0381,-886.25391)">
    <rect
       y="673.60559"
       x="-72.337006"
       height="325.04883"
       width="943.79883"
       id="rect3009-1"
       style="fill:none;stroke:#000000;stroke-width:1.20117652px;stroke-linecap:butt;stroke-linejoin:miter;stroke-opacity:1" />
    <text
       sodipodi:linespacing="125%"
       id="text3034"
       y="844.60443"
       x="314.00314"
       style="font-size:40px;font-style:normal;font-weight:normal;line-height:125%;letter-spacing:0px;word-spacing:0px;fill:#0000ff;fill-opacity:1;stroke:none;font-family:Sans"
       xml:space="preserve"><tspan
         y="844.60443"
         x="314.00314"
         id="tspan3036"
         sodipodi:role="line">Divider</tspan></text>
  </g>
  <g
     id="g3889"
     transform="translate(1835.3164,-624.87342)">
    <g
       id="g12"
       transform="translate(2002.5,22.5)">
      <path
         style="fill:none;stroke:#000000;stroke-width:0.89999998"
         d="m 1193.76,0 0,72 21.24,0 0,72 -21.24,0 0,72 21.24,0 0,72 -21.24,0 0,72 -84.51,0 0,-21.24 -105.75,0 0,21.24 -72,0 0,-21.24 -72,0 0,21.24 -72,0 0,-21.24 -72,0 0,21.24 -72,0 0,-21.24 -72,0 0,21.24 -72,0 0,-21.24 -72,0 0,21.24 -72,0 0,-21.24 -72,0 0,21.24 -72,0 0,-21.24 -105.75,0 0,21.24 -84.51,0 0,-72 -21.24,0 0,-72 21.24,0 0,-72 -21.24,0 0,-72 21.24,0 0,-72 c 430.49391,0 1172.52,0 1172.52,0 z"
         id="polygon14"
         inkscape:connector-curvature="0"
         sodipodi:nodetypes="ccccccccccccccccccccccccccccccccccccccccccccccccc" />
    </g>
    <g
       style="font-size:40px;font-style:normal;font-weight:normal;line-height:125%;letter-spacing:0px;word-spacing:0px;fill:#0000ff;fill-opacity:1;stroke:none;font-family:Sans"
       id="text3051">
      <path
         d="m 2252.3665,184.32925 3.5742,-0.3125 c 0.1692,1.4323 0.5631,2.60743 1.1816,3.52539 0.6185,0.91798 1.5788,1.66017 2.8809,2.22657 1.302,0.56641 2.7669,0.84961 4.3945,0.84961 1.4453,0 2.7213,-0.21484 3.8281,-0.64453 1.1068,-0.42969 1.9303,-1.01888 2.4707,-1.76758 0.5404,-0.74869 0.8106,-1.56575 0.8106,-2.45117 0,-0.89843 -0.2605,-1.68294 -0.7813,-2.35352 -0.5208,-0.67056 -1.3802,-1.23371 -2.5781,-1.68945 -0.7682,-0.29947 -2.4675,-0.76496 -5.0977,-1.39649 -2.6302,-0.63149 -4.4726,-1.2272 -5.5273,-1.78711 -1.3672,-0.71613 -2.3861,-1.6048 -3.0566,-2.66601 -0.6706,-1.06118 -1.0059,-2.24933 -1.0059,-3.56446 0,-1.44529 0.4102,-2.7962 1.2305,-4.05273 0.8203,-1.25648 2.0182,-2.21026 3.5937,-2.86133 1.5755,-0.65101 3.3268,-0.97653 5.2539,-0.97656 2.1224,3e-5 3.9942,0.34182 5.6153,1.02539 1.621,0.68362 2.8678,1.68948 3.7402,3.01758 0.8724,1.32815 1.3411,2.83205 1.4062,4.51172 l -3.6328,0.27343 c -0.1953,-1.80987 -0.8561,-3.17706 -1.9824,-4.10156 -1.1263,-0.92445 -2.7897,-1.38669 -4.9902,-1.38672 -2.2917,3e-5 -3.9616,0.41995 -5.0098,1.25977 -1.0482,0.83987 -1.5723,1.85223 -1.5723,3.03711 0,1.02866 0.3711,1.87502 1.1133,2.53906 0.7292,0.66408 2.6335,1.34442 5.7129,2.04102 3.0794,0.69663 5.1921,1.30535 6.3379,1.82617 1.6667,0.76824 2.8971,1.74155 3.6914,2.91992 0.7943,1.1784 1.1914,2.53582 1.1914,4.07227 0,1.52344 -0.4362,2.95898 -1.3086,4.30664 -0.8724,1.34765 -2.1256,2.39583 -3.7597,3.14453 -1.6342,0.7487 -3.4734,1.12304 -5.5176,1.12304 -2.5912,0 -4.7624,-0.3776 -6.5137,-1.13281 -1.7513,-0.75521 -3.125,-1.89127 -4.1211,-3.4082 -0.9961,-1.51692 -1.5202,-3.23242 -1.5722,-5.14649 z"
         style=""
         id="path4582" />
      <path
         d="m 2279.9446,168.93863 0,-4.04297 3.5156,0 0,4.04297 z m 0,24.58984 0,-20.74218 3.5156,0 0,20.74218 z"
         style=""
         id="path4584" />
      <path
         d="m 2302.2883,193.52847 0,-2.61718 c -1.3151,2.05729 -3.2487,3.08593 -5.8008,3.08593 -1.6536,0 -3.1738,-0.45573 -4.5605,-1.36718 -1.3867,-0.91146 -2.4609,-2.18425 -3.2227,-3.81836 -0.7617,-1.63411 -1.1425,-3.51237 -1.1425,-5.63477 0,-2.0703 0.345,-3.94855 1.0351,-5.63477 0.6901,-1.68618 1.7253,-2.97849 3.1055,-3.87695 1.3802,-0.89842 2.9232,-1.34763 4.6289,-1.34765 1.25,2e-5 2.3633,0.26369 3.3398,0.79101 0.9766,0.52736 1.7709,1.21421 2.3829,2.06055 l 0,-10.27344 3.496,0 0,28.63281 z m -11.1133,-10.35156 c 0,2.65626 0.5599,4.64193 1.6797,5.95703 1.1198,1.31511 2.4414,1.97266 3.9649,1.97266 1.5364,0 2.8418,-0.62825 3.916,-1.88477 1.0742,-1.2565 1.6113,-3.17382 1.6113,-5.75195 0,-2.83853 -0.5469,-4.92186 -1.6406,-6.25 -1.0938,-1.32811 -2.4414,-1.99217 -4.043,-1.99219 -1.5625,2e-5 -2.8678,0.63804 -3.916,1.91406 -1.0482,1.27606 -1.5723,3.28778 -1.5723,6.03516 z"
         style=""
         id="path4586" />
      <path
         d="m 2325.2961,186.84879 3.6329,0.44921 c -0.573,2.1224 -1.6342,3.76954 -3.1836,4.94141 -1.5495,1.17188 -3.5287,1.75781 -5.9375,1.75781 -3.0339,0 -5.4395,-0.93424 -7.2168,-2.80273 -1.7774,-1.86849 -2.6661,-4.48893 -2.6661,-7.86133 0,-3.48957 0.8985,-6.1979 2.6954,-8.125 1.7968,-1.92706 4.1276,-2.8906 6.9921,-2.89062 2.7735,2e-5 5.0391,0.94403 6.7969,2.83203 1.7578,1.88803 2.6367,4.54428 2.6367,7.96875 0,0.20834 -0.01,0.52084 -0.019,0.9375 l -15.4687,0 c 0.1302,2.27865 0.7747,4.02344 1.9336,5.23437 1.1588,1.21094 2.6041,1.81641 4.3359,1.81641 1.289,0 2.3893,-0.33854 3.3008,-1.01563 0.9114,-0.67708 1.6341,-1.7578 2.1679,-3.24218 z m -11.5429,-5.6836 11.582,0 c -0.1563,-1.74478 -0.599,-3.05337 -1.3281,-3.92578 -1.1198,-1.35415 -2.5716,-2.03123 -4.3555,-2.03125 -1.6146,2e-5 -2.972,0.54038 -4.0723,1.62109 -1.1002,1.08075 -1.7089,2.52606 -1.8261,4.33594 z"
         style=""
         id="path4588" />
    </g>
  </g>
  <g
     id="g3860"
     transform="translate(1835.3164,-624.87342)">
    <g
       id="g4"
       transform="translate(22.5,22.5)">
      <path
         style="fill:none;stroke:#000000;stroke-width:0.89999998"
         d="m 0,0 c 88.506194,0 906.67262,0 990,0 l 0,72 -21.24,0 0,72 21.24,0 0,72 -21.24,0 0,72 21.24,0 0,72 -121.5,0 0,-21.24 -121.5,0 0,21.24 -72,0 0,-21.24 -72,0 0,21.24 -72,0 0,-21.24 -72,0 0,21.24 -72,0 0,-21.24 -72,0 0,21.24 -72,0 0,-21.24 -121.5,0 0,21.24 -121.5,0 0,-72 21.24,0 0,-72 -21.24,0 0,-72 21.24,0 0,-72 L 0,72 z"
         id="polygon6"
         inkscape:connector-curvature="0"
         sodipodi:nodetypes="ccccccccccccccccccccccccccccccccccccccccc" />
    </g>
    <g
       style="font-size:40px;font-style:normal;font-weight:normal;line-height:125%;letter-spacing:0px;word-spacing:0px;fill:#0000ff;fill-opacity:1;stroke:none;font-family:Sans"
       id="text3059">
      <path
         d="m 264.73694,199.93671 0,-28.63282 19.3164,0 0,3.37891 -15.52734,0 0,8.86719 13.4375,0 0,3.3789 -13.4375,0 0,13.00782 z"
         id="path3955"
         inkscape:connector-curvature="0" />
      <path
         d="m 288.50647,199.93671 0,-20.74219 3.16406,0 0,3.14453 c 0.80729,-1.47133 1.55273,-2.44139 2.23633,-2.91016 0.68359,-0.46872 1.43554,-0.7031 2.25586,-0.70312 1.18488,2e-5 2.38931,0.37762 3.61328,1.13281 l -1.21094,3.26172 c -0.85938,-0.50779 -1.71876,-0.7617 -2.57812,-0.76172 -0.76824,2e-5 -1.45834,0.23114 -2.07031,0.69336 -0.61199,0.46226 -1.04819,1.10353 -1.3086,1.92383 -0.39063,1.25001 -0.58594,2.6172 -0.58594,4.10156 l 0,10.85938 z"
         id="path3957"
         inkscape:connector-curvature="0" />
      <path
         d="m 300.59631,189.56561 c 0,-3.84113 1.06771,-6.68618 3.20313,-8.53515 1.78385,-1.53644 3.95832,-2.30467 6.52344,-2.30469 2.85154,2e-5 5.18227,0.93426 6.99218,2.80273 1.80988,1.86851 2.71483,4.44989 2.71485,7.74414 -2e-5,2.66928 -0.40041,4.76889 -1.20117,6.29883 -0.8008,1.52995 -1.96617,2.7181 -3.4961,3.56446 -1.52996,0.84635 -3.19988,1.26953 -5.00976,1.26953 -2.90366,0 -5.25066,-0.93099 -7.04102,-2.79297 -1.79037,-1.86198 -2.68555,-4.54427 -2.68555,-8.04688 z m 3.61328,0 c 0,2.65626 0.57943,4.64519 1.73829,5.9668 1.15884,1.32162 2.61717,1.98242 4.375,1.98242 1.74477,0 3.1966,-0.66406 4.35546,-1.99219 1.15884,-1.32812 1.73827,-3.35285 1.73829,-6.07421 -2e-5,-2.5651 -0.5827,-4.50845 -1.74805,-5.83008 -1.16538,-1.3216 -2.61395,-1.98241 -4.3457,-1.98242 -1.75783,1e-5 -3.21616,0.65757 -4.375,1.97265 -1.15886,1.31512 -1.73829,3.3008 -1.73829,5.95703 z"
         id="path3959"
         inkscape:connector-curvature="0" />
      <path
         d="m 324.17053,199.93671 0,-20.74219 3.16406,0 0,2.94922 c 1.52343,-2.27863 3.72395,-3.41795 6.60157,-3.41797 1.24998,2e-5 2.39907,0.22463 3.44726,0.67383 1.04816,0.44924 1.83267,1.03843 2.35352,1.76758 0.52081,0.72918 0.8854,1.59506 1.09375,2.59765 0.13019,0.65106 0.19529,1.79038 0.19531,3.41797 l 0,12.75391 -3.51562,0 0,-12.61719 c -2e-5,-1.43228 -0.13674,-2.50324 -0.41016,-3.21289 -0.27345,-0.70962 -0.75848,-1.27603 -1.45508,-1.69922 -0.69663,-0.42316 -1.51368,-0.63475 -2.45117,-0.63477 -1.49741,2e-5 -2.78972,0.47528 -3.87695,1.42579 -1.08725,0.95053 -1.63087,2.75392 -1.63086,5.41015 l 0,11.32813 z"
         id="path3961"
         inkscape:connector-curvature="0" />
      <path
         d="m 354.11194,196.79218 0.50781,3.10546 c -0.98959,0.20834 -1.87501,0.3125 -2.65625,0.3125 -1.27605,0 -2.26563,-0.20182 -2.96875,-0.60546 -0.70313,-0.40365 -1.19792,-0.93425 -1.48437,-1.5918 -0.28647,-0.65755 -0.42969,-2.04101 -0.42969,-4.15039 l 0,-11.9336 -2.57813,0 0,-2.73437 2.57813,0 0,-5.13672 3.49609,-2.10937 0,7.24609 3.53516,0 0,2.73437 -3.53516,0 0,12.12891 c 0,1.00261 0.0618,1.64714 0.18555,1.93359 0.12369,0.28647 0.32551,0.51433 0.60547,0.6836 0.27994,0.16927 0.68033,0.25391 1.20117,0.2539 0.39062,1e-5 0.90494,-0.0456 1.54297,-0.13671 z"
         id="path3963"
         inkscape:connector-curvature="0" />
    </g>
  </g>
  <g
     id="g3872"
     transform="translate(1835.3164,-624.87342)">
    <g
       id="g24"
       transform="translate(1012.5,382.5)">
      <polygon
         id="polygon26"
         points="603,21.24 603,0 675,0 675,21.24 747,21.24 747,0 868.5,0 868.5,21.24 968.76,21.24 968.76,105.75 990,105.75 990,211.5 968.76,211.5 968.76,283.5 990,283.5 990,355.5 968.76,355.5 968.76,427.5 990,427.5 990,499.5 968.76,499.5 968.76,571.5 990,571.5 990,643.5 968.76,643.5 968.76,715.5 990,715.5 990,787.5 968.76,787.5 968.76,859.5 990,859.5 990,931.5 968.76,931.5 968.76,1003.5 990,1003.5 990,1109.25 968.76,1109.25 968.76,1193.76 868.5,1193.76 868.5,1215 747,1215 747,1193.76 675,1193.76 675,1215 603,1215 603,1193.76 531,1193.76 531,1215 459,1215 459,1193.76 387,1193.76 387,1215 315,1215 315,1193.76 243,1193.76 243,1215 121.5,1215 121.5,1193.76 21.24,1193.76 21.24,1109.25 0,1109.25 0,1003.5 21.24,1003.5 21.24,931.5 0,931.5 0,859.5 21.24,859.5 21.24,787.5 0,787.5 0,715.5 21.24,715.5 21.24,643.5 0,643.5 0,571.5 21.24,571.5 21.24,499.5 0,499.5 0,427.5 21.24,427.5 21.24,355.5 0,355.5 0,283.5 21.24,283.5 21.24,211.5 0,211.5 0,105.75 21.24,105.75 21.24,21.24 121.5,21.24 121.5,0 243,0 243,21.24 315,21.24 315,0 387,0 387,21.24 459,21.24 459,0 531,0 531,21.24 "
         style="fill:none;stroke:#000000;stroke-width:0.89999998" />
    </g>
    <text
       sodipodi:linespacing="125%"
       id="text3083"
       y="886.89874"
       x="1473.8925"
       style="font-size:40px;font-style:normal;font-weight:normal;line-height:125%;letter-spacing:0px;word-spacing:0px;fill:#0000ff;fill-opacity:1;stroke:none;font-family:Sans"
       xml:space="preserve"><tspan
         y="886.89874"
         x="1473.8925"
         id="tspan3085"
         sodipodi:role="line">Bottom</tspan></text>
  </g>
  <g
     style="font-size:40px;font-style:normal;font-weight:normal;line-height:125%;letter-spacing:0px;word-spacing:0px;fill:#0000ff;fill-opacity:1;stroke:none;font-family:Sans"
     id="g3971"
     transform="translate(2825.4057,-624.87342)">
    <g
       id="g3991" />
  </g>
  <text
     xml:space="preserve"
     style="font-size:40px;font-style:normal;font-weight:normal;line-height:125%;letter-spacing:0px;word-spacing:0px;fill:#000000;fill-opacity:1;stroke:none;font-family:Sans"
     x="2966.3291"
     y="-540.07654"
     id="text3998"
     sodipodi:linespacing="125%"><tspan
       sodipodi:role="line"
       id="tspan4000"
       x="2966.3291"
       y="-540.07654">Back</tspan></text>
  <g
     id="g4751">
    <g
       transform="translate(2848.7164,-602.37342)"
       id="g3967">
      <path
         sodipodi:nodetypes="ccccccccccccccccccccccccccccccccccccccccc"
         inkscape:connector-curvature="0"
         id="path3969"
         d="m 0,0 c 88.506194,0 906.67262,0 990,0 l 0,72 -21.24,0 0,72 21.24,0 0,72 -21.24,0 0,72 21.24,0 0,72 -121.5,0 0,-21.24 -121.5,0 0,21.24 -72,0 0,-21.24 -72,0 0,21.24 -72,0 0,-21.24 -72,0 0,21.24 -72,0 0,-21.24 -72,0 0,21.24 -72,0 0,-21.24 -121.5,0 0,21.24 -121.5,0 0,-72 21.24,0 0,-72 -21.24,0 0,-72 21.24,0 0,-72 L 0,72 z"
         style="fill:none;stroke:#000000;stroke-width:0.89999998" />
    </g>
    <rect
       style="fill:none;stroke:#000000;stroke-width:0.30786756px;stroke-linecap:butt;stroke-linejoin:miter;stroke-opacity:1"
       id="rect4004"
       width="224.69214"
       height="89.692131"
       x="3230.5596"
       y="-408.21716" />
  </g>
  <g
     id="g4527"
     transform="translate(-62.961255,-1.7390179)">
    <rect
       y="234.03284"
       x="2287.7227"
       height="179.48476"
       width="314.48477"
       id="rect4013"
       style="fill:none;stroke:#000000;stroke-width:1;stroke-linecap:butt;stroke-linejoin:miter;stroke-miterlimit:4;stroke-opacity:1;stroke-dasharray:none" />
    <rect
       style="fill:none;stroke:#000000;stroke-width:1;stroke-linecap:butt;stroke-linejoin:miter;stroke-miterlimit:4;stroke-opacity:1;stroke-dasharray:none"
       id="rect4015"
       width="46.29528"
       height="68.405518"
       x="2370.947"
       y="289.57245" />
    <path
       transform="matrix(0.62308763,0,0,0.70616593,960.4239,107.06494)"
       d="m 2496.6454,306.88293 c 0,10.6175 -9.7548,19.22469 -21.788,19.22469 -12.0331,0 -21.788,-8.60719 -21.788,-19.22469 0,-10.6175 9.7549,-19.22468 21.788,-19.22468 12.0332,0 21.788,8.60718 21.788,19.22468 z"
       sodipodi:ry="19.224684"
       sodipodi:rx="21.787973"
       sodipodi:cy="306.88293"
       sodipodi:cx="2474.8574"
       id="path4017"
       style="fill:none;stroke:#000000;stroke-width:1.50755119;stroke-linecap:butt;stroke-linejoin:miter;stroke-miterlimit:4;stroke-opacity:1;stroke-dasharray:none"
       sodipodi:type="arc" />
  </g>
  <g
     transform="translate(1835.3164,-263.97342)"
     id="g4590">
    <g
       transform="translate(2002.5,22.5)"
       id="g4592">
      <path
         sodipodi:nodetypes="ccccccccccccccccccccccccccccccccccccccccccccccccc"
         inkscape:connector-curvature="0"
         id="path4594"
         d="m 1193.76,0 0,72 21.24,0 0,72 -21.24,0 0,72 21.24,0 0,72 -21.24,0 0,72 -84.51,0 0,-21.24 -105.75,0 0,21.24 -72,0 0,-21.24 -72,0 0,21.24 -72,0 0,-21.24 -72,0 0,21.24 -72,0 0,-21.24 -72,0 0,21.24 -72,0 0,-21.24 -72,0 0,21.24 -72,0 0,-21.24 -72,0 0,21.24 -72,0 0,-21.24 -105.75,0 0,21.24 -84.51,0 0,-72 -21.24,0 0,-72 21.24,0 0,-72 -21.24,0 0,-72 21.24,0 0,-72 c 430.49391,0 1172.52,0 1172.52,0 z"
         style="fill:none;stroke:#000000;stroke-width:0.89999998" />
    </g>
    <g
       id="g4596"
       style="font-size:40px;font-style:normal;font-weight:normal;line-height:125%;letter-spacing:0px;word-spacing:0px;fill:#0000ff;fill-opacity:1;stroke:none;font-family:Sans">
      <path
         id="path4598"
         d="m 2252.3665,184.32925 3.5742,-0.3125 c 0.1692,1.4323 0.5631,2.60743 1.1816,3.52539 0.6185,0.91798 1.5788,1.66017 2.8809,2.22657 1.302,0.56641 2.7669,0.84961 4.3945,0.84961 1.4453,0 2.7213,-0.21484 3.8281,-0.64453 1.1068,-0.42969 1.9303,-1.01888 2.4707,-1.76758 0.5404,-0.74869 0.8106,-1.56575 0.8106,-2.45117 0,-0.89843 -0.2605,-1.68294 -0.7813,-2.35352 -0.5208,-0.67056 -1.3802,-1.23371 -2.5781,-1.68945 -0.7682,-0.29947 -2.4675,-0.76496 -5.0977,-1.39649 -2.6302,-0.63149 -4.4726,-1.2272 -5.5273,-1.78711 -1.3672,-0.71613 -2.3861,-1.6048 -3.0566,-2.66601 -0.6706,-1.06118 -1.0059,-2.24933 -1.0059,-3.56446 0,-1.44529 0.4102,-2.7962 1.2305,-4.05273 0.8203,-1.25648 2.0182,-2.21026 3.5937,-2.86133 1.5755,-0.65101 3.3268,-0.97653 5.2539,-0.97656 2.1224,3e-5 3.9942,0.34182 5.6153,1.02539 1.621,0.68362 2.8678,1.68948 3.7402,3.01758 0.8724,1.32815 1.3411,2.83205 1.4062,4.51172 l -3.6328,0.27343 c -0.1953,-1.80987 -0.8561,-3.17706 -1.9824,-4.10156 -1.1263,-0.92445 -2.7897,-1.38669 -4.9902,-1.38672 -2.2917,3e-5 -3.9616,0.41995 -5.0098,1.25977 -1.0482,0.83987 -1.5723,1.85223 -1.5723,3.03711 0,1.02866 0.3711,1.87502 1.1133,2.53906 0.7292,0.66408 2.6335,1.34442 5.7129,2.04102 3.0794,0.69663 5.1921,1.30535 6.3379,1.82617 1.6667,0.76824 2.8971,1.74155 3.6914,2.91992 0.7943,1.1784 1.1914,2.53582 1.1914,4.07227 0,1.52344 -0.4362,2.95898 -1.3086,4.30664 -0.8724,1.34765 -2.1256,2.39583 -3.7597,3.14453 -1.6342,0.7487 -3.4734,1.12304 -5.5176,1.12304 -2.5912,0 -4.7624,-0.3776 -6.5137,-1.13281 -1.7513,-0.75521 -3.125,-1.89127 -4.1211,-3.4082 -0.9961,-1.51692 -1.5202,-3.23242 -1.5722,-5.14649 z"
         inkscape:connector-curvature="0" />
      <path
         id="path4600"
         d="m 2279.9446,168.93863 0,-4.04297 3.5156,0 0,4.04297 z m 0,24.58984 0,-20.74218 3.5156,0 0,20.74218 z"
         inkscape:connector-curvature="0" />
      <path
         id="path4602"
         d="m 2302.2883,193.52847 0,-2.61718 c -1.3151,2.05729 -3.2487,3.08593 -5.8008,3.08593 -1.6536,0 -3.1738,-0.45573 -4.5605,-1.36718 -1.3867,-0.91146 -2.4609,-2.18425 -3.2227,-3.81836 -0.7617,-1.63411 -1.1425,-3.51237 -1.1425,-5.63477 0,-2.0703 0.345,-3.94855 1.0351,-5.63477 0.6901,-1.68618 1.7253,-2.97849 3.1055,-3.87695 1.3802,-0.89842 2.9232,-1.34763 4.6289,-1.34765 1.25,2e-5 2.3633,0.26369 3.3398,0.79101 0.9766,0.52736 1.7709,1.21421 2.3829,2.06055 l 0,-10.27344 3.496,0 0,28.63281 z m -11.1133,-10.35156 c 0,2.65626 0.5599,4.64193 1.6797,5.95703 1.1198,1.31511 2.4414,1.97266 3.9649,1.97266 1.5364,0 2.8418,-0.62825 3.916,-1.88477 1.0742,-1.2565 1.6113,-3.17382 1.6113,-5.75195 0,-2.83853 -0.5469,-4.92186 -1.6406,-6.25 -1.0938,-1.32811 -2.4414,-1.99217 -4.043,-1.99219 -1.5625,2e-5 -2.8678,0.63804 -3.916,1.91406 -1.0482,1.27606 -1.5723,3.28778 -1.5723,6.03516 z"
         inkscape:connector-curvature="0" />
      <path
         id="path4604"
         d="m 2325.2961,186.84879 3.6329,0.44921 c -0.573,2.1224 -1.6342,3.76954 -3.1836,4.94141 -1.5495,1.17188 -3.5287,1.75781 -5.9375,1.75781 -3.0339,0 -5.4395,-0.93424 -7.2168,-2.80273 -1.7774,-1.86849 -2.6661,-4.48893 -2.6661,-7.86133 0,-3.48957 0.8985,-6.1979 2.6954,-8.125 1.7968,-1.92706 4.1276,-2.8906 6.9921,-2.89062 2.7735,2e-5 5.0391,0.94403 6.7969,2.83203 1.7578,1.88803 2.6367,4.54428 2.6367,7.96875 0,0.20834 -0.01,0.52084 -0.019,0.9375 l -15.4687,0 c 0.1302,2.27865 0.7747,4.02344 1.9336,5.23437 1.1588,1.21094 2.6041,1.81641 4.3359,1.81641 1.289,0 2.3893,-0.33854 3.3008,-1.01563 0.9114,-0.67708 1.6341,-1.7578 2.1679,-3.24218 z m -11.5429,-5.6836 11.582,0 c -0.1563,-1.74478 -0.599,-3.05337 -1.3281,-3.92578 -1.1198,-1.35415 -2.5716,-2.03123 -4.3555,-2.03125 -1.6146,2e-5 -2.972,0.54038 -4.0723,1.62109 -1.1002,1.08075 -1.7089,2.52606 -1.8261,4.33594 z"
         inkscape:connector-curvature="0" />
    </g>
  </g>
</svg>
